# xmcd
#
# Track frame offsets: 
#        150
#        12220
#        25540
#        39045
#        52995
#        67305
#        83195
#        93995
#        108357
#        119550
#        132997
#        147100
#        165522
#        176747
#        190865
#        204507
#
# Disc length: 3022 seconds
#
# Revision: 0
# Processed by: cddbd v1.5.2PL0 Copyright (c) Steve Scherf et al.
# Submitted via: ExactAudioCopyFreeDBPlugin 1.0
#
DISCID=d10bcc10
DTITLE=Various Artist - 1968 - Oh, what a year
DYEAR=1900
DGENRE=
TTITLE0=Troggs - Love is all around
TTITLE1=John Fred and his playboy band - Judy in Disguise
TTITLE2=Marmalade - Ob-La-Di, Ob-La-Da
TTITLE3=Garry Pucket and The Union - Young girl
TTITLE4=Status Quo - Pictures of Matchstick Men
TTITLE5=Aretha Franklin - Think
TTITLE6=Billy Joe Royal - Hush
TTITLE7=Georgie Fame - The ballad of Bonnie and Clyde
TTITLE8=The Equals - Baby come back
TTITLE9=The Foundations - Build me up buttercup
TTITLE10=The Hollies - Jennifer Eccles
TTITLE11=Joe Cocker - With a little help from my friends
TTITLE12=The Tremeloes - My little lady
TTITLE13=Herman's Hermits - Something is happening
TTITLE14=Small Faces - Lazy Sunday
TTITLE15=Mary Hopkin - Those where the days
EXTD=
EXTT0=
EXTT1=
EXTT2=
EXTT3=
EXTT4=
EXTT5=
EXTT6=
EXTT7=
EXTT8=
EXTT9=
EXTT10=
EXTT11=
EXTT12=
EXTT13=
EXTT14=
EXTT15=
PLAYORDER=
